<svg width="62" height="32" viewBox="0 0 62 32" fill="none" xmlns="http://www.w3.org/2000/svg">
<path d="M23.5678 17.8768C23.5678 16.0921 23.5677 14.3765 23.4343 12.7997C23.3008 11.2226 23.0354 9.80728 22.5169 8.6213C22.0012 7.44193 21.2354 6.49018 20.0921 5.82832C18.9439 5.16362 17.3883 4.77609 15.2693 4.77609H1.13324L2.67885 6.3217C2.80848 6.45133 2.80848 6.66145 2.67885 6.79108C2.54921 6.92071 2.33909 6.92071 2.20946 6.79108L0.0972234 4.67885C-0.0324078 4.54921 -0.0324078 4.33909 0.0972234 4.20946L2.20946 2.09722C2.33909 1.96759 2.54921 1.96759 2.67885 2.09722C2.80848 2.22685 2.80848 2.43698 2.67885 2.56661L1.13324 4.11221H15.2693C17.4654 4.11221 19.1463 4.51345 20.4254 5.25391C21.7093 5.99726 22.5619 7.06752 23.125 8.35548C23.6852 9.63691 23.9593 11.1345 24.0955 12.744C24.2318 14.3538 24.2317 16.0987 24.2317 17.8768C24.2317 21.4789 23.3927 23.5061 21.5554 24.5759C20.6575 25.0986 19.5513 25.373 18.2613 25.5198C18.1451 25.5331 18.0269 25.5436 17.9073 25.5548C17.6328 26.1468 17.308 26.6668 16.9374 27.1218C15.689 28.655 13.9668 29.4087 12.0925 29.7495C10.2235 30.0893 8.17545 30.0239 6.24397 29.8993C4.29338 29.7734 2.48129 29.5895 1.01395 29.671L0.977646 29.0085C2.49773 28.924 4.37865 29.1136 6.28676 29.2367C8.21401 29.361 10.1909 29.42 11.9732 29.096C13.7501 28.7729 15.306 28.0743 16.4226 26.703C16.6844 26.3816 16.9222 26.0196 17.1358 25.6145C16.1194 25.6761 14.9941 25.6884 13.7645 25.6884C12.048 25.6884 10.7931 25.5428 9.88106 25.2469C8.95846 24.9475 8.36794 24.4874 8.01908 23.8575C7.67903 23.2435 7.59337 22.5103 7.58211 21.72C7.57645 21.322 7.58969 20.8964 7.60415 20.4532C7.6187 20.0075 7.63462 19.5411 7.63462 19.0496C7.63462 17.3904 7.6667 16.1262 7.78828 15.1694C7.9092 14.2179 8.12398 13.5177 8.52931 13.0286C8.94564 12.5263 9.52027 12.2965 10.237 12.1864C10.9436 12.0779 11.8418 12.0788 12.9457 12.0788C14.0612 12.0788 15.0046 12.1194 15.7827 12.2999C16.571 12.4827 17.2095 12.8138 17.6947 13.4033C18.173 13.9847 18.475 14.785 18.6607 15.8546C18.8464 16.9255 18.9206 18.2969 18.9206 20.0454C18.9206 21.9868 18.6628 23.5711 18.1945 24.8585C19.4397 24.7162 20.4388 24.4574 21.2209 24.0021C22.7471 23.1135 23.5678 21.4003 23.5678 17.8768ZM8.29851 19.0496C8.29851 19.5538 8.28252 20.0314 8.26804 20.4752C8.25348 20.9213 8.24058 21.3311 8.24599 21.7109C8.25691 22.4765 8.34257 23.0712 8.59998 23.536C8.84865 23.9849 9.28244 24.3547 10.0859 24.6154C10.9 24.8796 12.0736 25.0245 13.7645 25.0245C15.1474 25.0245 16.3743 25.008 17.4548 24.9266C17.9605 23.6835 18.2567 22.09 18.2567 20.0454C18.2567 18.3086 18.1824 16.9828 18.0065 15.9687C17.8304 14.9536 17.557 14.2806 17.1818 13.8247C16.8133 13.3771 16.3197 13.1063 15.6323 12.9469C14.9347 12.7851 14.0584 12.7427 12.9457 12.7427C11.8214 12.7427 10.9829 12.7436 10.3381 12.8425C9.70366 12.9399 9.31217 13.1252 9.04084 13.4526C8.75848 13.7933 8.56331 14.3381 8.44697 15.2536C8.33133 16.164 8.29851 17.3895 8.29851 19.0496Z" fill="black"/>
<path d="M29.2317 16C29.2317 12.134 32.3657 9 36.2317 9H54.2317C58.0977 9 61.2317 12.134 61.2317 16C61.2317 19.866 58.0977 23 54.2317 23H36.2317C32.3657 23 29.2317 19.866 29.2317 16Z" fill="#FFE49C"/>
<path d="M35.3624 19H34.4306L36.5243 13.1818H37.5385L39.6323 19H38.7004L37.0556 14.2386H37.0101L35.3624 19ZM35.5186 16.7216H38.5413V17.4602H35.5186V16.7216ZM41.2537 13.1818V19H40.4043V13.1818H41.2537ZM42.3965 20.6364V14.6364H43.226V15.3438H43.297C43.3463 15.2528 43.4173 15.1477 43.5101 15.0284C43.6029 14.9091 43.7317 14.8049 43.8965 14.7159C44.0612 14.625 44.279 14.5795 44.5499 14.5795C44.9021 14.5795 45.2165 14.6686 45.4931 14.8466C45.7696 15.0246 45.9864 15.2812 46.1436 15.6165C46.3027 15.9517 46.3823 16.3551 46.3823 16.8267C46.3823 17.2983 46.3037 17.7027 46.1465 18.0398C45.9893 18.375 45.7734 18.6335 45.4987 18.8153C45.2241 18.9953 44.9107 19.0852 44.5584 19.0852C44.2932 19.0852 44.0764 19.0407 43.9078 18.9517C43.7412 18.8627 43.6105 18.7585 43.5158 18.6392C43.4211 18.5199 43.3482 18.4138 43.297 18.321H43.2459V20.6364H42.3965ZM43.2288 16.8182C43.2288 17.125 43.2734 17.3939 43.3624 17.625C43.4514 17.8561 43.5802 18.0369 43.7487 18.1676C43.9173 18.2964 44.1237 18.3608 44.3681 18.3608C44.6218 18.3608 44.834 18.2936 45.0044 18.1591C45.1749 18.0227 45.3037 17.8381 45.3908 17.6051C45.4798 17.3722 45.5243 17.1098 45.5243 16.8182C45.5243 16.5303 45.4807 16.2718 45.3936 16.0426C45.3084 15.8134 45.1796 15.6326 45.0073 15.5C44.8368 15.3674 44.6237 15.3011 44.3681 15.3011C44.1218 15.3011 43.9135 15.3646 43.7431 15.4915C43.5745 15.6184 43.4467 15.7955 43.3595 16.0227C43.2724 16.25 43.2288 16.5152 43.2288 16.8182ZM48.1834 16.4091V19H47.334V13.1818H48.172V15.3466H48.226C48.3283 15.1117 48.4845 14.9252 48.6948 14.7869C48.905 14.6487 49.1796 14.5795 49.5186 14.5795C49.8179 14.5795 50.0792 14.6411 50.3027 14.7642C50.5281 14.8873 50.7023 15.071 50.8254 15.3153C50.9504 15.5578 51.0129 15.8608 51.0129 16.2244V19H50.1635V16.3267C50.1635 16.0066 50.0811 15.7585 49.9163 15.5824C49.7516 15.4044 49.5224 15.3153 49.2288 15.3153C49.0281 15.3153 48.8482 15.358 48.6891 15.4432C48.5319 15.5284 48.4078 15.6534 48.3169 15.8182C48.2279 15.9811 48.1834 16.178 48.1834 16.4091ZM53.4163 19.0966C53.1398 19.0966 52.8898 19.0455 52.6663 18.9432C52.4429 18.839 52.2658 18.6884 52.1351 18.4915C52.0063 18.2945 51.9419 18.053 51.9419 17.767C51.9419 17.5208 51.9893 17.3182 52.084 17.1591C52.1787 17 52.3065 16.8741 52.4675 16.7812C52.6285 16.6884 52.8084 16.6184 53.0073 16.571C53.2061 16.5237 53.4088 16.4877 53.6152 16.4631C53.8766 16.4328 54.0887 16.4081 54.2516 16.3892C54.4145 16.3684 54.5328 16.3352 54.6067 16.2898C54.6806 16.2443 54.7175 16.1705 54.7175 16.0682V16.0483C54.7175 15.8002 54.6474 15.608 54.5073 15.4716C54.369 15.3352 54.1626 15.267 53.8879 15.267C53.602 15.267 53.3766 15.3305 53.2118 15.4574C53.0489 15.5824 52.9362 15.7216 52.8737 15.875L52.0754 15.6932C52.1701 15.428 52.3084 15.214 52.4902 15.0511C52.6739 14.8864 52.8851 14.767 53.1237 14.6932C53.3624 14.6174 53.6133 14.5795 53.8766 14.5795C54.0508 14.5795 54.2355 14.6004 54.4306 14.642C54.6275 14.6818 54.8112 14.7557 54.9817 14.8636C55.154 14.9716 55.2951 15.1259 55.405 15.3267C55.5148 15.5256 55.5698 15.7841 55.5698 16.1023V19H54.7402V18.4034H54.7061C54.6512 18.5133 54.5688 18.6212 54.459 18.7273C54.3491 18.8333 54.208 18.9214 54.0357 18.9915C53.8633 19.0616 53.6569 19.0966 53.4163 19.0966ZM53.601 18.4148C53.8359 18.4148 54.0366 18.3684 54.2033 18.2756C54.3718 18.1828 54.4997 18.0616 54.5868 17.9119C54.6758 17.7604 54.7203 17.5985 54.7203 17.4261V16.8636C54.69 16.8939 54.6313 16.9223 54.5442 16.9489C54.459 16.9735 54.3614 16.9953 54.2516 17.0142C54.1417 17.0312 54.0347 17.0473 53.9306 17.0625C53.8264 17.0758 53.7393 17.0871 53.6692 17.0966C53.5044 17.1174 53.3538 17.1525 53.2175 17.2017C53.083 17.2509 52.9751 17.322 52.8936 17.4148C52.8141 17.5057 52.7743 17.6269 52.7743 17.7784C52.7743 17.9886 52.852 18.1477 53.0073 18.2557C53.1626 18.3617 53.3605 18.4148 53.601 18.4148Z" fill="black"/>
</svg>
