<svg width="37" height="43" viewBox="0 0 37 43" fill="none" xmlns="http://www.w3.org/2000/svg">
<path d="M0.146447 3.32845C-0.0488155 3.52372 -0.0488155 3.8403 0.146447 4.03556L3.32843 7.21754C3.52369 7.4128 3.84027 7.4128 4.03553 7.21754C4.2308 7.02228 4.2308 6.7057 4.03553 6.51043L1.20711 3.68201L4.03553 0.85358C4.2308 0.658318 4.2308 0.341735 4.03553 0.146473C3.84027 -0.0487892 3.52369 -0.0487892 3.32843 0.146473L0.146447 3.32845ZM1.5 41.182L1.52773 41.6812C3.73799 41.5584 6.46714 41.8352 9.40531 42.0247C12.3147 42.2124 15.3992 42.3108 18.2144 41.7989C21.0378 41.2856 23.6322 40.1509 25.5127 37.8415C27.3905 35.5355 28.5 32.1275 28.5 27.182H28H27.5C27.5 31.9866 26.422 35.1411 24.7373 37.21C23.0553 39.2756 20.7122 40.3284 18.0356 40.8151C15.3508 41.3032 12.3728 41.2141 9.46969 41.0268C6.59536 40.8414 3.76201 40.5556 1.47227 40.6828L1.5 41.182ZM28 27.182H28.5C28.5 24.5483 28.3884 22.483 28.1085 20.87C27.8289 19.2584 27.3741 18.0526 26.6534 17.1768C25.9225 16.2887 24.9605 15.7907 23.773 15.5152C22.6009 15.2434 21.1802 15.182 19.5 15.182V15.682V16.182C21.1761 16.182 22.4962 16.2456 23.5471 16.4894C24.5827 16.7296 25.3261 17.1378 25.8812 17.8122C26.4464 18.4989 26.8579 19.5119 27.1232 21.0409C27.3882 22.5685 27.5 24.5657 27.5 27.182H28ZM19.5 15.682V15.182C17.8372 15.182 16.4846 15.1807 15.4203 15.344C14.3405 15.5098 13.4749 15.8561 12.8477 16.613C12.2371 17.3498 11.914 18.4043 11.7319 19.8377C11.5487 21.279 11.5 23.1828 11.5 25.682H12H12.5C12.5 23.1812 12.5497 21.335 12.7239 19.9638C12.8991 18.5847 13.1924 17.7643 13.6177 17.251C14.0264 16.7579 14.6163 16.4792 15.572 16.3325C16.5433 16.1834 17.8064 16.182 19.5 16.182V15.682ZM12 25.682H11.5C11.5 26.4225 11.4764 27.1252 11.4544 27.7966C11.4327 28.4643 11.4124 29.1051 11.4209 29.7048C11.4379 30.8953 11.5671 31.9994 12.0794 32.9243C12.6049 33.873 13.4937 34.566 14.8834 35.017C16.2572 35.4628 18.1476 35.682 20.7335 35.682V35.182V34.682C18.1862 34.682 16.4183 34.4637 15.1921 34.0658C13.9817 33.673 13.3288 33.116 12.9542 32.4397C12.5664 31.7397 12.4373 30.8437 12.4208 29.6905C12.4127 29.1183 12.432 28.5013 12.4539 27.8292C12.4757 27.1607 12.5 26.4415 12.5 25.682H12ZM20.7335 35.182V35.682C23.2987 35.682 25.5625 35.6491 27.5066 35.4278C29.4499 35.2066 31.1158 34.7934 32.4683 34.0059C35.236 32.3945 36.5 29.3415 36.5 23.9155H36H35.5C35.5 29.2231 34.264 31.8033 31.9651 33.1417C30.7843 33.8292 29.2752 34.2201 27.3935 34.4342C25.5127 34.6483 23.3015 34.682 20.7335 34.682V35.182ZM36 23.9155H36.5C36.5 21.2371 36.5003 18.6087 36.2951 16.1837C36.0899 13.7592 35.6771 11.5036 34.8331 9.5734C33.9848 7.63318 32.7003 6.0211 30.7661 4.90138C28.8395 3.78603 26.3079 3.18201 23 3.18201V3.68201V4.18201C26.1921 4.18201 28.5355 4.76549 30.2651 5.76681C31.9872 6.76377 33.1402 8.19753 33.9169 9.974C34.6979 11.7605 35.0976 13.8924 35.2987 16.268C35.4997 18.643 35.5 21.2272 35.5 23.9155H36ZM23 3.68201V3.18201C22.9797 3.18201 22.9594 3.18201 22.9391 3.18201C22.9188 3.18201 22.8985 3.18201 22.8782 3.18201C22.8579 3.18201 22.8376 3.18201 22.8173 3.18201C22.7971 3.18201 22.7768 3.18201 22.7565 3.18201C22.7363 3.18201 22.716 3.18201 22.6957 3.18201C22.6755 3.18201 22.6552 3.18201 22.635 3.18201C22.6147 3.18201 22.5945 3.18201 22.5743 3.18201C22.554 3.18201 22.5338 3.18201 22.5136 3.18201C22.4934 3.18201 22.4732 3.18201 22.4529 3.18201C22.4327 3.18201 22.4125 3.18201 22.3923 3.18201C22.3721 3.18201 22.3519 3.18201 22.3318 3.18201C22.3116 3.18201 22.2914 3.18201 22.2712 3.18201C22.251 3.18201 22.2309 3.18201 22.2107 3.18201C22.1906 3.18201 22.1704 3.18201 22.1503 3.18201C22.1301 3.18201 22.11 3.18201 22.0898 3.18201C22.0697 3.18201 22.0496 3.18201 22.0294 3.18201C22.0093 3.18201 21.9892 3.18201 21.9691 3.18201C21.949 3.18201 21.9289 3.18201 21.9088 3.18201C21.8886 3.18201 21.8686 3.18201 21.8485 3.18201C21.8284 3.18201 21.8083 3.18201 21.7882 3.18201C21.7681 3.18201 21.7481 3.18201 21.728 3.18201C21.7079 3.18201 21.6879 3.18201 21.6678 3.18201C21.6478 3.18201 21.6277 3.18201 21.6077 3.18201C21.5877 3.18201 21.5676 3.18201 21.5476 3.18201C21.5276 3.18201 21.5076 3.18201 21.4876 3.18201C21.4675 3.18201 21.4475 3.18201 21.4275 3.18201C21.4075 3.18201 21.3875 3.18201 21.3676 3.18201C21.3476 3.18201 21.3276 3.18201 21.3076 3.18201C21.2876 3.18201 21.2677 3.18201 21.2477 3.18201C21.2277 3.18201 21.2078 3.18201 21.1878 3.18201C21.1679 3.18201 21.148 3.18201 21.128 3.18201C21.1081 3.18201 21.0882 3.18201 21.0682 3.18201C21.0483 3.18201 21.0284 3.18201 21.0085 3.18201C20.9886 3.18201 20.9687 3.18201 20.9488 3.18201C20.9289 3.18201 20.909 3.18201 20.8891 3.18201C20.8692 3.18201 20.8494 3.18201 20.8295 3.18201C20.8096 3.18201 20.7898 3.18201 20.7699 3.18201C20.7501 3.18201 20.7302 3.18201 20.7104 3.18201C20.6905 3.18201 20.6707 3.18201 20.6509 3.18201C20.631 3.18201 20.6112 3.18201 20.5914 3.18201C20.5716 3.18201 20.5518 3.18201 20.532 3.18201C20.5122 3.18201 20.4924 3.18201 20.4726 3.18201C20.4528 3.18201 20.433 3.18201 20.4133 3.18201C20.3935 3.18201 20.3737 3.18201 20.354 3.18201C20.3342 3.18201 20.3145 3.18201 20.2947 3.18201C20.275 3.18201 20.2552 3.18201 20.2355 3.18201C20.2158 3.18201 20.1961 3.18201 20.1763 3.18201C20.1566 3.18201 20.1369 3.18201 20.1172 3.18201C20.0975 3.18201 20.0778 3.18201 20.0581 3.18201C20.0384 3.18201 20.0188 3.18201 19.9991 3.18201C19.9794 3.18201 19.9598 3.18201 19.9401 3.18201C19.9204 3.18201 19.9008 3.18201 19.8811 3.18201C19.8615 3.18201 19.8419 3.18201 19.8222 3.18201C19.8026 3.18201 19.783 3.18201 19.7634 3.18201C19.7437 3.18201 19.7241 3.18201 19.7045 3.18201C19.6849 3.18201 19.6653 3.18201 19.6458 3.18201C19.6262 3.18201 19.6066 3.18201 19.587 3.18201C19.5675 3.18201 19.5479 3.18201 19.5283 3.18201C19.5088 3.18201 19.4892 3.18201 19.4697 3.18201C19.4502 3.18201 19.4306 3.18201 19.4111 3.18201C19.3916 3.18201 19.3721 3.18201 19.3525 3.18201C19.333 3.18201 19.3135 3.18201 19.294 3.18201C19.2745 3.18201 19.255 3.18201 19.2356 3.18201C19.2161 3.18201 19.1966 3.18201 19.1771 3.18201C19.1577 3.18201 19.1382 3.18201 19.1188 3.18201C19.0993 3.18201 19.0799 3.18201 19.0604 3.18201C19.041 3.18201 19.0216 3.18201 19.0022 3.18201C18.9828 3.18201 18.9633 3.18201 18.9439 3.18201C18.9245 3.18201 18.9051 3.18201 18.8857 3.18201C18.8664 3.18201 18.847 3.18201 18.8276 3.18201C18.8082 3.18201 18.7889 3.18201 18.7695 3.18201C18.7502 3.18201 18.7308 3.18201 18.7115 3.18201C18.6921 3.18201 18.6728 3.18201 18.6535 3.18201C18.6341 3.18201 18.6148 3.18201 18.5955 3.18201C18.5762 3.18201 18.5569 3.18201 18.5376 3.18201C18.5183 3.18201 18.499 3.18201 18.4798 3.18201C18.4605 3.18201 18.4412 3.18201 18.422 3.18201C18.4027 3.18201 18.3834 3.18201 18.3642 3.18201C18.345 3.18201 18.3257 3.18201 18.3065 3.18201C18.2873 3.18201 18.268 3.18201 18.2488 3.18201C18.2296 3.18201 18.2104 3.18201 18.1912 3.18201C18.172 3.18201 18.1528 3.18201 18.1336 3.18201C18.1145 3.18201 18.0953 3.18201 18.0761 3.18201C18.057 3.18201 18.0378 3.18201 18.0187 3.18201C17.9995 3.18201 17.9804 3.18201 17.9613 3.18201C17.9421 3.18201 17.923 3.18201 17.9039 3.18201C17.8848 3.18201 17.8657 3.18201 17.8466 3.18201C17.8275 3.18201 17.8084 3.18201 17.7893 3.18201C17.7702 3.18201 17.7512 3.18201 17.7321 3.18201C17.713 3.18201 17.694 3.18201 17.6749 3.18201C17.6559 3.18201 17.6369 3.18201 17.6178 3.18201C17.5988 3.18201 17.5798 3.18201 17.5608 3.18201C17.5418 3.18201 17.5227 3.18201 17.5038 3.18201C17.4848 3.18201 17.4658 3.18201 17.4468 3.18201C17.4278 3.18201 17.4088 3.18201 17.3899 3.18201C17.3709 3.18201 17.352 3.18201 17.333 3.18201C17.3141 3.18201 17.2952 3.18201 17.2762 3.18201C17.2573 3.18201 17.2384 3.18201 17.2195 3.18201C17.2006 3.18201 17.1817 3.18201 17.1628 3.18201C17.1439 3.18201 17.125 3.18201 17.1061 3.18201C17.0873 3.18201 17.0684 3.18201 17.0495 3.18201C17.0307 3.18201 17.0118 3.18201 16.993 3.18201C16.9742 3.18201 16.9553 3.18201 16.9365 3.18201C16.9177 3.18201 16.8989 3.18201 16.8801 3.18201C16.8613 3.18201 16.8425 3.18201 16.8237 3.18201C16.8049 3.18201 16.7861 3.18201 16.7674 3.18201C16.7486 3.18201 16.7299 3.18201 16.7111 3.18201C16.6924 3.18201 16.6736 3.18201 16.6549 3.18201C16.6362 3.18201 16.6174 3.18201 16.5987 3.18201C16.58 3.18201 16.5613 3.18201 16.5426 3.18201C16.5239 3.18201 16.5052 3.18201 16.4866 3.18201C16.4679 3.18201 16.4492 3.18201 16.4306 3.18201C16.4119 3.18201 16.3933 3.18201 16.3746 3.18201C16.356 3.18201 16.3373 3.18201 16.3187 3.18201C16.3001 3.18201 16.2815 3.18201 16.2629 3.18201C16.2443 3.18201 16.2257 3.18201 16.2071 3.18201C16.1885 3.18201 16.17 3.18201 16.1514 3.18201C16.1328 3.18201 16.1143 3.18201 16.0957 3.18201C16.0772 3.18201 16.0586 3.18201 16.0401 3.18201C16.0216 3.18201 16.0031 3.18201 15.9846 3.18201C15.9661 3.18201 15.9476 3.18201 15.9291 3.18201C15.9106 3.18201 15.8921 3.18201 15.8736 3.18201C15.8552 3.18201 15.8367 3.18201 15.8182 3.18201C15.7998 3.18201 15.7813 3.18201 15.7629 3.18201C15.7445 3.18201 15.7261 3.18201 15.7076 3.18201C15.6892 3.18201 15.6708 3.18201 15.6524 3.18201C15.634 3.18201 15.6157 3.18201 15.5973 3.18201C15.5789 3.18201 15.5605 3.18201 15.5422 3.18201C15.5238 3.18201 15.5055 3.18201 15.4872 3.18201C15.4688 3.18201 15.4505 3.18201 15.4322 3.18201C15.4139 3.18201 15.3955 3.18201 15.3773 3.18201C15.359 3.18201 15.3407 3.18201 15.3224 3.18201C15.3041 3.18201 15.2858 3.18201 15.2676 3.18201C15.2493 3.18201 15.2311 3.18201 15.2128 3.18201C15.1946 3.18201 15.1764 3.18201 15.1582 3.18201C15.1399 3.18201 15.1217 3.18201 15.1035 3.18201C15.0853 3.18201 15.0672 3.18201 15.049 3.18201C15.0308 3.18201 15.0126 3.18201 14.9945 3.18201C14.9763 3.18201 14.9582 3.18201 14.94 3.18201C14.9219 3.18201 14.9038 3.18201 14.8856 3.18201C14.8675 3.18201 14.8494 3.18201 14.8313 3.18201C14.8132 3.18201 14.7951 3.18201 14.7771 3.18201C14.759 3.18201 14.7409 3.18201 14.7229 3.18201C14.7048 3.18201 14.6867 3.18201 14.6687 3.18201C14.6507 3.18201 14.6326 3.18201 14.6146 3.18201C14.5966 3.18201 14.5786 3.18201 14.5606 3.18201C14.5426 3.18201 14.5246 3.18201 14.5067 3.18201C14.4887 3.18201 14.4707 3.18201 14.4528 3.18201C14.4348 3.18201 14.4169 3.18201 14.3989 3.18201C14.381 3.18201 14.3631 3.18201 14.3452 3.18201C14.3272 3.18201 14.3093 3.18201 14.2914 3.18201C14.2736 3.18201 14.2557 3.18201 14.2378 3.18201C14.2199 3.18201 14.2021 3.18201 14.1842 3.18201C14.1664 3.18201 14.1485 3.18201 14.1307 3.18201C14.1129 3.18201 14.0951 3.18201 14.0772 3.18201C14.0594 3.18201 14.0416 3.18201 14.0238 3.18201C14.0061 3.18201 13.9883 3.18201 13.9705 3.18201C13.9528 3.18201 13.935 3.18201 13.9173 3.18201C13.8995 3.18201 13.8818 3.18201 13.8641 3.18201C13.8463 3.18201 13.8286 3.18201 13.8109 3.18201C13.7932 3.18201 13.7755 3.18201 13.7578 3.18201C13.7402 3.18201 13.7225 3.18201 13.7048 3.18201C13.6872 3.18201 13.6695 3.18201 13.6519 3.18201C13.6342 3.18201 13.6166 3.18201 13.599 3.18201C13.5814 3.18201 13.5638 3.18201 13.5462 3.18201C13.5286 3.18201 13.511 3.18201 13.4934 3.18201C13.4759 3.18201 13.4583 3.18201 13.4408 3.18201C13.4232 3.18201 13.4057 3.18201 13.3881 3.18201C13.3706 3.18201 13.3531 3.18201 13.3356 3.18201C13.3181 3.18201 13.3006 3.18201 13.2831 3.18201C13.2656 3.18201 13.2481 3.18201 13.2307 3.18201C13.2132 3.18201 13.1958 3.18201 13.1783 3.18201C13.1609 3.18201 13.1435 3.18201 13.126 3.18201C13.1086 3.18201 13.0912 3.18201 13.0738 3.18201C13.0564 3.18201 13.039 3.18201 13.0217 3.18201C13.0043 3.18201 12.9869 3.18201 12.9696 3.18201C12.9522 3.18201 12.9349 3.18201 12.9176 3.18201C12.9002 3.18201 12.8829 3.18201 12.8656 3.18201C12.8483 3.18201 12.831 3.18201 12.8137 3.18201C12.7964 3.18201 12.7792 3.18201 12.7619 3.18201C12.7447 3.18201 12.7274 3.18201 12.7102 3.18201C12.6929 3.18201 12.6757 3.18201 12.6585 3.18201C12.6413 3.18201 12.6241 3.18201 12.6069 3.18201C12.5897 3.18201 12.5725 3.18201 12.5553 3.18201C12.5382 3.18201 12.521 3.18201 12.5039 3.18201C12.4867 3.18201 12.4696 3.18201 12.4525 3.18201C12.4353 3.18201 12.4182 3.18201 12.4011 3.18201C12.384 3.18201 12.3669 3.18201 12.3499 3.18201C12.3328 3.18201 12.3157 3.18201 12.2987 3.18201C12.2816 3.18201 12.2646 3.18201 12.2475 3.18201C12.2305 3.18201 12.2135 3.18201 12.1965 3.18201C12.1795 3.18201 12.1625 3.18201 12.1455 3.18201C12.1285 3.18201 12.1116 3.18201 12.0946 3.18201C12.0776 3.18201 12.0607 3.18201 12.0438 3.18201C12.0268 3.18201 12.0099 3.18201 11.993 3.18201C11.9761 3.18201 11.9592 3.18201 11.9423 3.18201C11.9254 3.18201 11.9085 3.18201 11.8916 3.18201C11.8748 3.18201 11.8579 3.18201 11.8411 3.18201C11.8242 3.18201 11.8074 3.18201 11.7906 3.18201C11.7738 3.18201 11.757 3.18201 11.7402 3.18201C11.7234 3.18201 11.7066 3.18201 11.6898 3.18201C11.6731 3.18201 11.6563 3.18201 11.6396 3.18201C11.6228 3.18201 11.6061 3.18201 11.5894 3.18201C11.5727 3.18201 11.5559 3.18201 11.5392 3.18201C11.5226 3.18201 11.5059 3.18201 11.4892 3.18201C11.4725 3.18201 11.4559 3.18201 11.4392 3.18201C11.4226 3.18201 11.4059 3.18201 11.3893 3.18201C11.3727 3.18201 11.3561 3.18201 11.3395 3.18201C11.3229 3.18201 11.3063 3.18201 11.2897 3.18201C11.2731 3.18201 11.2566 3.18201 11.24 3.18201C11.2235 3.18201 11.2069 3.18201 11.1904 3.18201C11.1739 3.18201 11.1574 3.18201 11.1409 3.18201C11.1244 3.18201 11.1079 3.18201 11.0914 3.18201C11.0749 3.18201 11.0585 3.18201 11.042 3.18201C11.0256 3.18201 11.0091 3.18201 10.9927 3.18201C10.9763 3.18201 10.9599 3.18201 10.9435 3.18201C10.9271 3.18201 10.9107 3.18201 10.8943 3.18201C10.8779 3.18201 10.8616 3.18201 10.8452 3.18201C10.8289 3.18201 10.8125 3.18201 10.7962 3.18201C10.7799 3.18201 10.7636 3.18201 10.7473 3.18201C10.731 3.18201 10.7147 3.18201 10.6984 3.18201C10.6821 3.18201 10.6659 3.18201 10.6496 3.18201C10.6334 3.18201 10.6171 3.18201 10.6009 3.18201C10.5847 3.18201 10.5685 3.18201 10.5523 3.18201C10.5361 3.18201 10.5199 3.18201 10.5037 3.18201C10.4875 3.18201 10.4714 3.18201 10.4552 3.18201C10.4391 3.18201 10.423 3.18201 10.4068 3.18201C10.3907 3.18201 10.3746 3.18201 10.3585 3.18201C10.3424 3.18201 10.3263 3.18201 10.3103 3.18201C10.2942 3.18201 10.2781 3.18201 10.2621 3.18201C10.246 3.18201 10.23 3.18201 10.214 3.18201C10.198 3.18201 10.182 3.18201 10.166 3.18201C10.15 3.18201 10.134 3.18201 10.118 3.18201C10.1021 3.18201 10.0861 3.18201 10.0702 3.18201C10.0542 3.18201 10.0383 3.18201 10.0224 3.18201C10.0065 3.18201 9.99059 3.18201 9.9747 3.18201C9.95881 3.18201 9.94294 3.18201 9.92708 3.18201C9.91121 3.18201 9.89537 3.18201 9.87953 3.18201C9.8637 3.18201 9.84788 3.18201 9.83207 3.18201C9.81626 3.18201 9.80047 3.18201 9.78468 3.18201C9.7689 3.18201 9.75313 3.18201 9.73738 3.18201C9.72162 3.18201 9.70588 3.18201 9.69015 3.18201C9.67443 3.18201 9.65871 3.18201 9.64301 3.18201C9.62731 3.18201 9.61162 3.18201 9.59594 3.18201C9.58027 3.18201 9.56461 3.18201 9.54896 3.18201C9.53331 3.18201 9.51768 3.18201 9.50206 3.18201C9.48644 3.18201 9.47083 3.18201 9.45523 3.18201C9.43964 3.18201 9.42406 3.18201 9.40849 3.18201C9.39293 3.18201 9.37737 3.18201 9.36183 3.18201C9.34629 3.18201 9.33077 3.18201 9.31525 3.18201C9.29974 3.18201 9.28424 3.18201 9.26876 3.18201C9.25327 3.18201 9.2378 3.18201 9.22234 3.18201C9.20688 3.18201 9.19144 3.18201 9.17601 3.18201C9.16058 3.18201 9.14516 3.18201 9.12976 3.18201C9.11435 3.18201 9.09896 3.18201 9.08359 3.18201C9.06821 3.18201 9.05285 3.18201 9.0375 3.18201C9.02215 3.18201 9.00682 3.18201 8.9915 3.18201C8.97618 3.18201 8.96087 3.18201 8.94558 3.18201C8.93028 3.18201 8.915 3.18201 8.89974 3.18201C8.88447 3.18201 8.86922 3.18201 8.85398 3.18201C8.83875 3.18201 8.82352 3.18201 8.80831 3.18201C8.7931 3.18201 8.77791 3.18201 8.76273 3.18201C8.74755 3.18201 8.73238 3.18201 8.71722 3.18201C8.70207 3.18201 8.68693 3.18201 8.67181 3.18201C8.65668 3.18201 8.64157 3.18201 8.62647 3.18201C8.61137 3.18201 8.59629 3.18201 8.58122 3.18201C8.56615 3.18201 8.5511 3.18201 8.53606 3.18201C8.52102 3.18201 8.50599 3.18201 8.49098 3.18201C8.47596 3.18201 8.46097 3.18201 8.44598 3.18201C8.431 3.18201 8.41603 3.18201 8.40107 3.18201C8.38612 3.18201 8.37117 3.18201 8.35625 3.18201C8.34132 3.18201 8.32641 3.18201 8.31151 3.18201C8.29661 3.18201 8.28173 3.18201 8.26686 3.18201C8.25199 3.18201 8.23713 3.18201 8.22229 3.18201C8.20745 3.18201 8.19262 3.18201 8.17781 3.18201C8.163 3.18201 8.1482 3.18201 8.13341 3.18201C8.11863 3.18201 8.10386 3.18201 8.08911 3.18201C8.07435 3.18201 8.05961 3.18201 8.04489 3.18201C8.03016 3.18201 8.01545 3.18201 8.00075 3.18201C7.98606 3.18201 7.97137 3.18201 7.95671 3.18201C7.94204 3.18201 7.92738 3.18201 7.91275 3.18201C7.89811 3.18201 7.88348 3.18201 7.86887 3.18201C7.85427 3.18201 7.83967 3.18201 7.82509 3.18201C7.81051 3.18201 7.79595 3.18201 7.78139 3.18201C7.76684 3.18201 7.75231 3.18201 7.73779 3.18201C7.72327 3.18201 7.70876 3.18201 7.69427 3.18201C7.67978 3.18201 7.6653 3.18201 7.65084 3.18201C7.63638 3.18201 7.62193 3.18201 7.6075 3.18201C7.59306 3.18201 7.57865 3.18201 7.56424 3.18201C7.54984 3.18201 7.53545 3.18201 7.52108 3.18201C7.50671 3.18201 7.49235 3.18201 7.478 3.18201C7.46366 3.18201 7.44933 3.18201 7.43502 3.18201C7.42071 3.18201 7.40641 3.18201 7.39212 3.18201C7.37784 3.18201 7.36357 3.18201 7.34932 3.18201C7.33506 3.18201 7.32083 3.18201 7.3066 3.18201C7.29238 3.18201 7.27817 3.18201 7.26398 3.18201C7.24978 3.18201 7.23561 3.18201 7.22144 3.18201C7.20728 3.18201 7.19313 3.18201 7.179 3.18201C7.16487 3.18201 7.15075 3.18201 7.13664 3.18201C7.12254 3.18201 7.10845 3.18201 7.09438 3.18201C7.08031 3.18201 7.06625 3.18201 7.05221 3.18201C7.03817 3.18201 7.02414 3.18201 7.01013 3.18201C6.99612 3.18201 6.98213 3.18201 6.96814 3.18201C6.95416 3.18201 6.9402 3.18201 6.92625 3.18201C6.9123 3.18201 6.89836 3.18201 6.88444 3.18201C6.87052 3.18201 6.85662 3.18201 6.84273 3.18201C6.82884 3.18201 6.81497 3.18201 6.80111 3.18201C6.78726 3.18201 6.77341 3.18201 6.75959 3.18201C6.74576 3.18201 6.73195 3.18201 6.71815 3.18201C6.70436 3.18201 6.69058 3.18201 6.67681 3.18201C6.66305 3.18201 6.6493 3.18201 6.63556 3.18201C6.62183 3.18201 6.60811 3.18201 6.59441 3.18201C6.58071 3.18201 6.56702 3.18201 6.55335 3.18201C6.53968 3.18201 6.52602 3.18201 6.51238 3.18201C6.49874 3.18201 6.48512 3.18201 6.47151 3.18201C6.4579 3.18201 6.4443 3.18201 6.43073 3.18201C6.41715 3.18201 6.40359 3.18201 6.39004 3.18201C6.3765 3.18201 6.36297 3.18201 6.34945 3.18201C6.33594 3.18201 6.32244 3.18201 6.30896 3.18201C6.29547 3.18201 6.28201 3.18201 6.26855 3.18201C6.2551 3.18201 6.24167 3.18201 6.22825 3.18201C6.21483 3.18201 6.20143 3.18201 6.18804 3.18201C6.17465 3.18201 6.16128 3.18201 6.14792 3.18201C6.13457 3.18201 6.12123 3.18201 6.1079 3.18201C6.09458 3.18201 6.08127 3.18201 6.06798 3.18201C6.05469 3.18201 6.04141 3.18201 6.02815 3.18201C6.01489 3.18201 6.00165 3.18201 5.98842 3.18201C5.97519 3.18201 5.96198 3.18201 5.94879 3.18201C5.93559 3.18201 5.92241 3.18201 5.90925 3.18201C5.89609 3.18201 5.88294 3.18201 5.86981 3.18201C5.85668 3.18201 5.84356 3.18201 5.83046 3.18201C5.81736 3.18201 5.80428 3.18201 5.79122 3.18201C5.77815 3.18201 5.7651 3.18201 5.75207 3.18201C5.73903 3.18201 5.72601 3.18201 5.71301 3.18201C5.70001 3.18201 5.68703 3.18201 5.67406 3.18201C5.66109 3.18201 5.64814 3.18201 5.6352 3.18201C5.62227 3.18201 5.60935 3.18201 5.59644 3.18201C5.58354 3.18201 5.57065 3.18201 5.55778 3.18201C5.54491 3.18201 5.53206 3.18201 5.51922 3.18201C5.50638 3.18201 5.49356 3.18201 5.48076 3.18201C5.46796 3.18201 5.45517 3.18201 5.4424 3.18201C5.42962 3.18201 5.41687 3.18201 5.40413 3.18201C5.39139 3.18201 5.37867 3.18201 5.36597 3.18201C5.35326 3.18201 5.34057 3.18201 5.3279 3.18201C5.31523 3.18201 5.30257 3.18201 5.28993 3.18201C5.27729 3.18201 5.26467 3.18201 5.25207 3.18201C5.23946 3.18201 5.22687 3.18201 5.2143 3.18201C5.20173 3.18201 5.18917 3.18201 5.17663 3.18201C5.1641 3.18201 5.15157 3.18201 5.13907 3.18201C5.12656 3.18201 5.11408 3.18201 5.1016 3.18201C5.08913 3.18201 5.07668 3.18201 5.06424 3.18201C5.0518 3.18201 5.03938 3.18201 5.02698 3.18201C5.01457 3.18201 5.00219 3.18201 4.98982 3.18201C4.97745 3.18201 4.96509 3.18201 4.95276 3.18201C4.94042 3.18201 4.9281 3.18201 4.9158 3.18201C4.90349 3.18201 4.89121 3.18201 4.87894 3.18201C4.86667 3.18201 4.85442 3.18201 4.84219 3.18201C4.82995 3.18201 4.81773 3.18201 4.80553 3.18201C4.79333 3.18201 4.78115 3.18201 4.76898 3.18201C4.75682 3.18201 4.74467 3.18201 4.73253 3.18201C4.7204 3.18201 4.70829 3.18201 4.69619 3.18201C4.68409 3.18201 4.67201 3.18201 4.65995 3.18201C4.64788 3.18201 4.63584 3.18201 4.62381 3.18201C4.61178 3.18201 4.59977 3.18201 4.58777 3.18201C4.57578 3.18201 4.5638 3.18201 4.55184 3.18201C4.53988 3.18201 4.52794 3.18201 4.51601 3.18201C4.50409 3.18201 4.49218 3.18201 4.48029 3.18201C4.4684 3.18201 4.45652 3.18201 4.44467 3.18201C4.43281 3.18201 4.42097 3.18201 4.40915 3.18201C4.39733 3.18201 4.38553 3.18201 4.37374 3.18201C4.36196 3.18201 4.35019 3.18201 4.33843 3.18201C4.32668 3.18201 4.31495 3.18201 4.30323 3.18201C4.29152 3.18201 4.27982 3.18201 4.26814 3.18201C4.25645 3.18201 4.24479 3.18201 4.23314 3.18201C4.2215 3.18201 4.20987 3.18201 4.19826 3.18201C4.18665 3.18201 4.17505 3.18201 4.16348 3.18201C4.1519 3.18201 4.14034 3.18201 4.1288 3.18201C4.11726 3.18201 4.10574 3.18201 4.09424 3.18201C4.08273 3.18201 4.07124 3.18201 4.05977 3.18201C4.0483 3.18201 4.03685 3.18201 4.02542 3.18201C4.01398 3.18201 4.00257 3.18201 3.99117 3.18201C3.97977 3.18201 3.96839 3.18201 3.95703 3.18201C3.94566 3.18201 3.93432 3.18201 3.92299 3.18201C3.91166 3.18201 3.90035 3.18201 3.88906 3.18201C3.87777 3.18201 3.8665 3.18201 3.85524 3.18201C3.84399 3.18201 3.83275 3.18201 3.82153 3.18201C3.81031 3.18201 3.79911 3.18201 3.78792 3.18201C3.77674 3.18201 3.76557 3.18201 3.75443 3.18201C3.74328 3.18201 3.73215 3.18201 3.72104 3.18201C3.70992 3.18201 3.69883 3.18201 3.68776 3.18201C3.67668 3.18201 3.66562 3.18201 3.65458 3.18201C3.64354 3.18201 3.63252 3.18201 3.62152 3.18201C3.61052 3.18201 3.59953 3.18201 3.58856 3.18201C3.5776 3.18201 3.56665 3.18201 3.55572 3.18201C3.54479 3.18201 3.53388 3.18201 3.52298 3.18201C3.51209 3.18201 3.50121 3.18201 3.49036 3.18201C3.4795 3.18201 3.46866 3.18201 3.45784 3.18201C3.44702 3.18201 3.43622 3.18201 3.42543 3.18201C3.41465 3.18201 3.40388 3.18201 3.39313 3.18201C3.38239 3.18201 3.37166 3.18201 3.36095 3.18201C3.35024 3.18201 3.33954 3.18201 3.32887 3.18201C3.3182 3.18201 3.30754 3.18201 3.2969 3.18201C3.28627 3.18201 3.27565 3.18201 3.26505 3.18201C3.25445 3.18201 3.24387 3.18201 3.23331 3.18201C3.22274 3.18201 3.2122 3.18201 3.20167 3.18201C3.19115 3.18201 3.18064 3.18201 3.17015 3.18201C3.15966 3.18201 3.14919 3.18201 3.13874 3.18201C3.12829 3.18201 3.11786 3.18201 3.10744 3.18201C3.09703 3.18201 3.08663 3.18201 3.07626 3.18201C3.06588 3.18201 3.05552 3.18201 3.04518 3.18201C3.03484 3.18201 3.02452 3.18201 3.01422 3.18201C3.00392 3.18201 2.99364 3.18201 2.98337 3.18201C2.97311 3.18201 2.96286 3.18201 2.95264 3.18201C2.94241 3.18201 2.9322 3.18201 2.92201 3.18201C2.91183 3.18201 2.90166 3.18201 2.89151 3.18201C2.88135 3.18201 2.87122 3.18201 2.86111 3.18201C2.851 3.18201 2.8409 3.18201 2.83083 3.18201C2.82075 3.18201 2.81069 3.18201 2.80066 3.18201C2.79062 3.18201 2.7806 3.18201 2.7706 3.18201C2.7606 3.18201 2.75062 3.18201 2.74066 3.18201C2.7307 3.18201 2.72076 3.18201 2.71083 3.18201C2.70091 3.18201 2.69101 3.18201 2.68112 3.18201C2.67124 3.18201 2.66137 3.18201 2.65152 3.18201C2.64168 3.18201 2.63185 3.18201 2.62204 3.18201C2.61223 3.18201 2.60244 3.18201 2.59267 3.18201C2.5829 3.18201 2.57315 3.18201 2.56342 3.18201C2.55369 3.18201 2.54398 3.18201 2.53428 3.18201C2.52459 3.18201 2.51492 3.18201 2.50526 3.18201C2.49561 3.18201 2.48597 3.18201 2.47635 3.18201C2.46674 3.18201 2.45714 3.18201 2.44757 3.18201C2.43799 3.18201 2.42843 3.18201 2.41889 3.18201C2.40935 3.18201 2.39983 3.18201 2.39034 3.18201C2.38084 3.18201 2.37136 3.18201 2.36189 3.18201C2.35243 3.18201 2.34299 3.18201 2.33357 3.18201C2.32415 3.18201 2.31475 3.18201 2.30536 3.18201C2.29598 3.18201 2.28662 3.18201 2.27728 3.18201C2.26793 3.18201 2.25861 3.18201 2.2493 3.18201C2.24 3.18201 2.23071 3.18201 2.22145 3.18201C2.21218 3.18201 2.20294 3.18201 2.19371 3.18201C2.18449 3.18201 2.17528 3.18201 2.16609 3.18201C2.15691 3.18201 2.14774 3.18201 2.13859 3.18201C2.12945 3.18201 2.12032 3.18201 2.11121 3.18201C2.1021 3.18201 2.09302 3.18201 2.08395 3.18201C2.07488 3.18201 2.06583 3.18201 2.0568 3.18201C2.04777 3.18201 2.03877 3.18201 2.02978 3.18201C2.02079 3.18201 2.01182 3.18201 2.00287 3.18201C1.99392 3.18201 1.98499 3.18201 1.97608 3.18201C1.96717 3.18201 1.95828 3.18201 1.94941 3.18201C1.94054 3.18201 1.9317 3.18201 1.92287 3.18201C1.91404 3.18201 1.90523 3.18201 1.89644 3.18201C1.88765 3.18201 1.87888 3.18201 1.87013 3.18201C1.86138 3.18201 1.85265 3.18201 1.84394 3.18201C1.83523 3.18201 1.82654 3.18201 1.81787 3.18201C1.8092 3.18201 1.80055 3.18201 1.79193 3.18201C1.7833 3.18201 1.77469 3.18201 1.7661 3.18201C1.75751 3.18201 1.74894 3.18201 1.74039 3.18201C1.73185 3.18201 1.72332 3.18201 1.71481 3.18201C1.7063 3.18201 1.69781 3.18201 1.68935 3.18201C1.68088 3.18201 1.67243 3.18201 1.66401 3.18201C1.65558 3.18201 1.64717 3.18201 1.63879 3.18201C1.6304 3.18201 1.62204 3.18201 1.61369 3.18201C1.60534 3.18201 1.59702 3.18201 1.58872 3.18201C1.58041 3.18201 1.57213 3.18201 1.56386 3.18201C1.5556 3.18201 1.54736 3.18201 1.53913 3.18201C1.53091 3.18201 1.52271 3.18201 1.51453 3.18201C1.50634 3.18201 1.49818 3.18201 1.49004 3.18201C1.4819 3.18201 1.47378 3.18201 1.46568 3.18201C1.45758 3.18201 1.4495 3.18201 1.44144 3.18201C1.43338 3.18201 1.42535 3.18201 1.41733 3.18201C1.40931 3.18201 1.40131 3.18201 1.39334 3.18201C1.38536 3.18201 1.37741 3.18201 1.36947 3.18201C1.36154 3.18201 1.35362 3.18201 1.34573 3.18201C1.33783 3.18201 1.32996 3.18201 1.32211 3.18201C1.31426 3.18201 1.30643 3.18201 1.29862 3.18201C1.29081 3.18201 1.28302 3.18201 1.27525 3.18201C1.26748 3.18201 1.25973 3.18201 1.252 3.18201C1.24428 3.18201 1.23657 3.18201 1.22888 3.18201C1.2212 3.18201 1.21353 3.18201 1.20589 3.18201C1.19825 3.18201 1.19062 3.18201 1.18302 3.18201C1.17542 3.18201 1.16784 3.18201 1.16028 3.18201C1.15272 3.18201 1.14518 3.18201 1.13766 3.18201C1.13014 3.18201 1.12265 3.18201 1.11517 3.18201C1.10769 3.18201 1.10024 3.18201 1.09281 3.18201C1.08537 3.18201 1.07796 3.18201 1.07057 3.18201C1.06318 3.18201 1.05581 3.18201 1.04846 3.18201C1.04111 3.18201 1.03378 3.18201 1.02647 3.18201C1.01916 3.18201 1.01188 3.18201 1.00461 3.18201C0.997348 3.18201 0.990105 3.18201 0.982882 3.18201C0.97566 3.18201 0.968459 3.18201 0.961279 3.18201C0.954099 3.18201 0.946941 3.18201 0.939803 3.18201C0.932666 3.18201 0.92555 3.18201 0.918455 3.18201C0.911361 3.18201 0.904287 3.18201 0.897235 3.18201C0.890183 3.18201 0.883153 3.18201 0.876143 3.18201C0.869134 3.18201 0.862146 3.18201 0.85518 3.18201C0.848213 3.18201 0.841268 3.18201 0.834345 3.18201C0.827421 3.18201 0.820519 3.18201 0.813638 3.18201C0.806758 3.18201 0.799899 3.18201 0.793061 3.18201C0.786223 3.18201 0.779407 3.18201 0.772613 3.18201C0.765818 3.18201 0.759045 3.18201 0.752294 3.18201C0.745542 3.18201 0.738812 3.18201 0.732104 3.18201C0.725396 3.18201 0.718709 3.18201 0.712044 3.18201C0.705379 3.18201 0.698736 3.18201 0.692114 3.18201C0.685493 3.18201 0.678893 3.18201 0.672314 3.18201C0.665736 3.18201 0.65918 3.18201 0.652645 3.18201C0.64611 3.18201 0.639597 3.18201 0.633106 3.18201C0.626614 3.18201 0.620145 3.18201 0.613697 3.18201C0.607249 3.18201 0.600823 3.18201 0.594419 3.18201C0.588015 3.18201 0.581633 3.18201 0.575273 3.18201C0.568912 3.18201 0.562574 3.18201 0.556257 3.18201C0.549941 3.18201 0.543646 3.18201 0.537373 3.18201C0.5311 3.18201 0.52485 3.18201 0.518621 3.18201C0.512392 3.18201 0.506185 3.18201 0.5 3.18201V3.68201V4.18201C0.506185 4.18201 0.512392 4.18201 0.518621 4.18201C0.52485 4.18201 0.5311 4.18201 0.537373 4.18201C0.543646 4.18201 0.549941 4.18201 0.556257 4.18201C0.562574 4.18201 0.568912 4.18201 0.575273 4.18201C0.581633 4.18201 0.588015 4.18201 0.594419 4.18201C0.600823 4.18201 0.607249 4.18201 0.613697 4.18201C0.620145 4.18201 0.626614 4.18201 0.633106 4.18201C0.639597 4.18201 0.64611 4.18201 0.652645 4.18201C0.65918 4.18201 0.665736 4.18201 0.672314 4.18201C0.678893 4.18201 0.685493 4.18201 0.692114 4.18201C0.698736 4.18201 0.705379 4.18201 0.712044 4.18201C0.718709 4.18201 0.725396 4.18201 0.732104 4.18201C0.738812 4.18201 0.745542 4.18201 0.752294 4.18201C0.759045 4.18201 0.765818 4.18201 0.772613 4.18201C0.779407 4.18201 0.786223 4.18201 0.793061 4.18201C0.799899 4.18201 0.806758 4.18201 0.813638 4.18201C0.820519 4.18201 0.827421 4.18201 0.834345 4.18201C0.841268 4.18201 0.848213 4.18201 0.85518 4.18201C0.862146 4.18201 0.869134 4.18201 0.876143 4.18201C0.883153 4.18201 0.890183 4.18201 0.897235 4.18201C0.904287 4.18201 0.911361 4.18201 0.918455 4.18201C0.92555 4.18201 0.932666 4.18201 0.939803 4.18201C0.946941 4.18201 0.954099 4.18201 0.961279 4.18201C0.968459 4.18201 0.97566 4.18201 0.982882 4.18201C0.990105 4.18201 0.997348 4.18201 1.00461 4.18201C1.01188 4.18201 1.01916 4.18201 1.02647 4.18201C1.03378 4.18201 1.04111 4.18201 1.04846 4.18201C1.05581 4.18201 1.06318 4.18201 1.07057 4.18201C1.07796 4.18201 1.08537 4.18201 1.09281 4.18201C1.10024 4.18201 1.10769 4.18201 1.11517 4.18201C1.12265 4.18201 1.13014 4.18201 1.13766 4.18201C1.14518 4.18201 1.15272 4.18201 1.16028 4.18201C1.16784 4.18201 1.17542 4.18201 1.18302 4.18201C1.19062 4.18201 1.19825 4.18201 1.20589 4.18201C1.21353 4.18201 1.2212 4.18201 1.22888 4.18201C1.23657 4.18201 1.24428 4.18201 1.252 4.18201C1.25973 4.18201 1.26748 4.18201 1.27525 4.18201C1.28302 4.18201 1.29081 4.18201 1.29862 4.18201C1.30643 4.18201 1.31426 4.18201 1.32211 4.18201C1.32996 4.18201 1.33783 4.18201 1.34573 4.18201C1.35362 4.18201 1.36154 4.18201 1.36947 4.18201C1.37741 4.18201 1.38536 4.18201 1.39334 4.18201C1.40131 4.18201 1.40931 4.18201 1.41733 4.18201C1.42535 4.18201 1.43338 4.18201 1.44144 4.18201C1.4495 4.18201 1.45758 4.18201 1.46568 4.18201C1.47378 4.18201 1.4819 4.18201 1.49004 4.18201C1.49818 4.18201 1.50634 4.18201 1.51453 4.18201C1.52271 4.18201 1.53091 4.18201 1.53913 4.18201C1.54736 4.18201 1.5556 4.18201 1.56386 4.18201C1.57213 4.18201 1.58041 4.18201 1.58872 4.18201C1.59702 4.18201 1.60534 4.18201 1.61369 4.18201C1.62204 4.18201 1.6304 4.18201 1.63879 4.18201C1.64717 4.18201 1.65558 4.18201 1.66401 4.18201C1.67243 4.18201 1.68088 4.18201 1.68935 4.18201C1.69781 4.18201 1.7063 4.18201 1.71481 4.18201C1.72332 4.18201 1.73185 4.18201 1.74039 4.18201C1.74894 4.18201 1.75751 4.18201 1.7661 4.18201C1.77469 4.18201 1.7833 4.18201 1.79193 4.18201C1.80055 4.18201 1.8092 4.18201 1.81787 4.18201C1.82654 4.18201 1.83523 4.18201 1.84394 4.18201C1.85265 4.18201 1.86138 4.18201 1.87013 4.18201C1.87888 4.18201 1.88765 4.18201 1.89644 4.18201C1.90523 4.18201 1.91404 4.18201 1.92287 4.18201C1.9317 4.18201 1.94054 4.18201 1.94941 4.18201C1.95828 4.18201 1.96717 4.18201 1.97608 4.18201C1.98499 4.18201 1.99392 4.18201 2.00287 4.18201C2.01182 4.18201 2.02079 4.18201 2.02978 4.18201C2.03877 4.18201 2.04777 4.18201 2.0568 4.18201C2.06583 4.18201 2.07488 4.18201 2.08395 4.18201C2.09302 4.18201 2.1021 4.18201 2.11121 4.18201C2.12032 4.18201 2.12945 4.18201 2.13859 4.18201C2.14774 4.18201 2.15691 4.18201 2.16609 4.18201C2.17528 4.18201 2.18449 4.18201 2.19371 4.18201C2.20294 4.18201 2.21218 4.18201 2.22145 4.18201C2.23071 4.18201 2.24 4.18201 2.2493 4.18201C2.25861 4.18201 2.26793 4.18201 2.27728 4.18201C2.28662 4.18201 2.29598 4.18201 2.30536 4.18201C2.31475 4.18201 2.32415 4.18201 2.33357 4.18201C2.34299 4.18201 2.35243 4.18201 2.36189 4.18201C2.37136 4.18201 2.38084 4.18201 2.39034 4.18201C2.39983 4.18201 2.40935 4.18201 2.41889 4.18201C2.42843 4.18201 2.43799 4.18201 2.44757 4.18201C2.45714 4.18201 2.46674 4.18201 2.47635 4.18201C2.48597 4.18201 2.49561 4.18201 2.50526 4.18201C2.51492 4.18201 2.52459 4.18201 2.53428 4.18201C2.54398 4.18201 2.55369 4.18201 2.56342 4.18201C2.57315 4.18201 2.5829 4.18201 2.59267 4.18201C2.60244 4.18201 2.61223 4.18201 2.62204 4.18201C2.63185 4.18201 2.64168 4.18201 2.65152 4.18201C2.66137 4.18201 2.67124 4.18201 2.68112 4.18201C2.69101 4.18201 2.70091 4.18201 2.71083 4.18201C2.72076 4.18201 2.7307 4.18201 2.74066 4.18201C2.75062 4.18201 2.7606 4.18201 2.7706 4.18201C2.7806 4.18201 2.79062 4.18201 2.80066 4.18201C2.81069 4.18201 2.82075 4.18201 2.83083 4.18201C2.8409 4.18201 2.851 4.18201 2.86111 4.18201C2.87122 4.18201 2.88135 4.18201 2.89151 4.18201C2.90166 4.18201 2.91183 4.18201 2.92201 4.18201C2.9322 4.18201 2.94241 4.18201 2.95264 4.18201C2.96286 4.18201 2.97311 4.18201 2.98337 4.18201C2.99364 4.18201 3.00392 4.18201 3.01422 4.18201C3.02452 4.18201 3.03484 4.18201 3.04518 4.18201C3.05552 4.18201 3.06588 4.18201 3.07626 4.18201C3.08663 4.18201 3.09703 4.18201 3.10744 4.18201C3.11786 4.18201 3.12829 4.18201 3.13874 4.18201C3.14919 4.18201 3.15966 4.18201 3.17015 4.18201C3.18064 4.18201 3.19115 4.18201 3.20167 4.18201C3.2122 4.18201 3.22274 4.18201 3.23331 4.18201C3.24387 4.18201 3.25445 4.18201 3.26505 4.18201C3.27565 4.18201 3.28627 4.18201 3.2969 4.18201C3.30754 4.18201 3.3182 4.18201 3.32887 4.18201C3.33954 4.18201 3.35024 4.18201 3.36095 4.18201C3.37166 4.18201 3.38239 4.18201 3.39313 4.18201C3.40388 4.18201 3.41465 4.18201 3.42543 4.18201C3.43622 4.18201 3.44702 4.18201 3.45784 4.18201C3.46866 4.18201 3.4795 4.18201 3.49036 4.18201C3.50121 4.18201 3.51209 4.18201 3.52298 4.18201C3.53388 4.18201 3.54479 4.18201 3.55572 4.18201C3.56665 4.18201 3.5776 4.18201 3.58856 4.18201C3.59953 4.18201 3.61052 4.18201 3.62152 4.18201C3.63252 4.18201 3.64354 4.18201 3.65458 4.18201C3.66562 4.18201 3.67668 4.18201 3.68776 4.18201C3.69883 4.18201 3.70992 4.18201 3.72104 4.18201C3.73215 4.18201 3.74328 4.18201 3.75443 4.18201C3.76557 4.18201 3.77674 4.18201 3.78792 4.18201C3.79911 4.18201 3.81031 4.18201 3.82153 4.18201C3.83275 4.18201 3.84399 4.18201 3.85524 4.18201C3.8665 4.18201 3.87777 4.18201 3.88906 4.18201C3.90035 4.18201 3.91166 4.18201 3.92299 4.18201C3.93432 4.18201 3.94566 4.18201 3.95703 4.18201C3.96839 4.18201 3.97977 4.18201 3.99117 4.18201C4.00257 4.18201 4.01398 4.18201 4.02542 4.18201C4.03685 4.18201 4.0483 4.18201 4.05977 4.18201C4.07124 4.18201 4.08273 4.18201 4.09424 4.18201C4.10574 4.18201 4.11726 4.18201 4.1288 4.18201C4.14034 4.18201 4.1519 4.18201 4.16348 4.18201C4.17505 4.18201 4.18665 4.18201 4.19826 4.18201C4.20987 4.18201 4.2215 4.18201 4.23314 4.18201C4.24479 4.18201 4.25645 4.18201 4.26814 4.18201C4.27982 4.18201 4.29152 4.18201 4.30323 4.18201C4.31495 4.18201 4.32668 4.18201 4.33843 4.18201C4.35019 4.18201 4.36196 4.18201 4.37374 4.18201C4.38553 4.18201 4.39733 4.18201 4.40915 4.18201C4.42097 4.18201 4.43281 4.18201 4.44467 4.18201C4.45652 4.18201 4.4684 4.18201 4.48029 4.18201C4.49218 4.18201 4.50409 4.18201 4.51601 4.18201C4.52794 4.18201 4.53988 4.18201 4.55184 4.18201C4.5638 4.18201 4.57578 4.18201 4.58777 4.18201C4.59977 4.18201 4.61178 4.18201 4.62381 4.18201C4.63584 4.18201 4.64788 4.18201 4.65995 4.18201C4.67201 4.18201 4.68409 4.18201 4.69619 4.18201C4.70829 4.18201 4.7204 4.18201 4.73253 4.18201C4.74467 4.18201 4.75682 4.18201 4.76898 4.18201C4.78115 4.18201 4.79333 4.18201 4.80553 4.18201C4.81773 4.18201 4.82995 4.18201 4.84219 4.18201C4.85442 4.18201 4.86667 4.18201 4.87894 4.18201C4.89121 4.18201 4.90349 4.18201 4.9158 4.18201C4.9281 4.18201 4.94042 4.18201 4.95276 4.18201C4.96509 4.18201 4.97745 4.18201 4.98982 4.18201C5.00219 4.18201 5.01457 4.18201 5.02698 4.18201C5.03938 4.18201 5.0518 4.18201 5.06424 4.18201C5.07668 4.18201 5.08913 4.18201 5.1016 4.18201C5.11408 4.18201 5.12656 4.18201 5.13907 4.18201C5.15157 4.18201 5.1641 4.18201 5.17663 4.18201C5.18917 4.18201 5.20173 4.18201 5.2143 4.18201C5.22687 4.18201 5.23946 4.18201 5.25207 4.18201C5.26467 4.18201 5.27729 4.18201 5.28993 4.18201C5.30257 4.18201 5.31523 4.18201 5.3279 4.18201C5.34057 4.18201 5.35326 4.18201 5.36597 4.18201C5.37867 4.18201 5.39139 4.18201 5.40413 4.18201C5.41687 4.18201 5.42962 4.18201 5.4424 4.18201C5.45517 4.18201 5.46796 4.18201 5.48076 4.18201C5.49356 4.18201 5.50638 4.18201 5.51922 4.18201C5.53206 4.18201 5.54491 4.18201 5.55778 4.18201C5.57065 4.18201 5.58354 4.18201 5.59644 4.18201C5.60935 4.18201 5.62227 4.18201 5.6352 4.18201C5.64814 4.18201 5.66109 4.18201 5.67406 4.18201C5.68703 4.18201 5.70001 4.18201 5.71301 4.18201C5.72601 4.18201 5.73903 4.18201 5.75207 4.18201C5.7651 4.18201 5.77815 4.18201 5.79122 4.18201C5.80428 4.18201 5.81736 4.18201 5.83046 4.18201C5.84356 4.18201 5.85668 4.18201 5.86981 4.18201C5.88294 4.18201 5.89609 4.18201 5.90925 4.18201C5.92241 4.18201 5.93559 4.18201 5.94879 4.18201C5.96198 4.18201 5.97519 4.18201 5.98842 4.18201C6.00165 4.18201 6.01489 4.18201 6.02815 4.18201C6.04141 4.18201 6.05469 4.18201 6.06798 4.18201C6.08127 4.18201 6.09458 4.18201 6.1079 4.18201C6.12123 4.18201 6.13457 4.18201 6.14792 4.18201C6.16128 4.18201 6.17465 4.18201 6.18804 4.18201C6.20143 4.18201 6.21483 4.18201 6.22825 4.18201C6.24167 4.18201 6.2551 4.18201 6.26855 4.18201C6.28201 4.18201 6.29547 4.18201 6.30896 4.18201C6.32244 4.18201 6.33594 4.18201 6.34945 4.18201C6.36297 4.18201 6.3765 4.18201 6.39004 4.18201C6.40359 4.18201 6.41715 4.18201 6.43073 4.18201C6.4443 4.18201 6.4579 4.18201 6.47151 4.18201C6.48512 4.18201 6.49874 4.18201 6.51238 4.18201C6.52602 4.18201 6.53968 4.18201 6.55335 4.18201C6.56702 4.18201 6.58071 4.18201 6.59441 4.18201C6.60811 4.18201 6.62183 4.18201 6.63556 4.18201C6.6493 4.18201 6.66305 4.18201 6.67681 4.18201C6.69058 4.18201 6.70436 4.18201 6.71815 4.18201C6.73195 4.18201 6.74576 4.18201 6.75959 4.18201C6.77341 4.18201 6.78726 4.18201 6.80111 4.18201C6.81497 4.18201 6.82884 4.18201 6.84273 4.18201C6.85662 4.18201 6.87052 4.18201 6.88444 4.18201C6.89836 4.18201 6.9123 4.18201 6.92625 4.18201C6.9402 4.18201 6.95416 4.18201 6.96814 4.18201C6.98213 4.18201 6.99612 4.18201 7.01013 4.18201C7.02414 4.18201 7.03817 4.18201 7.05221 4.18201C7.06625 4.18201 7.08031 4.18201 7.09438 4.18201C7.10845 4.18201 7.12254 4.18201 7.13664 4.18201C7.15075 4.18201 7.16487 4.18201 7.179 4.18201C7.19313 4.18201 7.20728 4.18201 7.22144 4.18201C7.23561 4.18201 7.24978 4.18201 7.26398 4.18201C7.27817 4.18201 7.29238 4.18201 7.3066 4.18201C7.32083 4.18201 7.33506 4.18201 7.34932 4.18201C7.36357 4.18201 7.37784 4.18201 7.39212 4.18201C7.40641 4.18201 7.42071 4.18201 7.43502 4.18201C7.44933 4.18201 7.46366 4.18201 7.478 4.18201C7.49235 4.18201 7.50671 4.18201 7.52108 4.18201C7.53545 4.18201 7.54984 4.18201 7.56424 4.18201C7.57865 4.18201 7.59306 4.18201 7.6075 4.18201C7.62193 4.18201 7.63638 4.18201 7.65084 4.18201C7.6653 4.18201 7.67978 4.18201 7.69427 4.18201C7.70876 4.18201 7.72327 4.18201 7.73779 4.18201C7.75231 4.18201 7.76684 4.18201 7.78139 4.18201C7.79595 4.18201 7.81051 4.18201 7.82509 4.18201C7.83967 4.18201 7.85427 4.18201 7.86887 4.18201C7.88348 4.18201 7.89811 4.18201 7.91275 4.18201C7.92738 4.18201 7.94204 4.18201 7.95671 4.18201C7.97137 4.18201 7.98606 4.18201 8.00075 4.18201C8.01545 4.18201 8.03016 4.18201 8.04489 4.18201C8.05961 4.18201 8.07435 4.18201 8.08911 4.18201C8.10386 4.18201 8.11863 4.18201 8.13341 4.18201C8.1482 4.18201 8.163 4.18201 8.17781 4.18201C8.19262 4.18201 8.20745 4.18201 8.22229 4.18201C8.23713 4.18201 8.25199 4.18201 8.26686 4.18201C8.28173 4.18201 8.29661 4.18201 8.31151 4.18201C8.32641 4.18201 8.34132 4.18201 8.35625 4.18201C8.37117 4.18201 8.38612 4.18201 8.40107 4.18201C8.41603 4.18201 8.431 4.18201 8.44598 4.18201C8.46097 4.18201 8.47596 4.18201 8.49098 4.18201C8.50599 4.18201 8.52102 4.18201 8.53606 4.18201C8.5511 4.18201 8.56615 4.18201 8.58122 4.18201C8.59629 4.18201 8.61137 4.18201 8.62647 4.18201C8.64157 4.18201 8.65668 4.18201 8.67181 4.18201C8.68693 4.18201 8.70207 4.18201 8.71722 4.18201C8.73238 4.18201 8.74755 4.18201 8.76273 4.18201C8.77791 4.18201 8.7931 4.18201 8.80831 4.18201C8.82352 4.18201 8.83875 4.18201 8.85398 4.18201C8.86922 4.18201 8.88447 4.18201 8.89974 4.18201C8.915 4.18201 8.93028 4.18201 8.94558 4.18201C8.96087 4.18201 8.97618 4.18201 8.9915 4.18201C9.00682 4.18201 9.02215 4.18201 9.0375 4.18201C9.05285 4.18201 9.06821 4.18201 9.08359 4.18201C9.09896 4.18201 9.11435 4.18201 9.12976 4.18201C9.14516 4.18201 9.16058 4.18201 9.17601 4.18201C9.19144 4.18201 9.20688 4.18201 9.22234 4.18201C9.2378 4.18201 9.25327 4.18201 9.26876 4.18201C9.28424 4.18201 9.29974 4.18201 9.31525 4.18201C9.33077 4.18201 9.34629 4.18201 9.36183 4.18201C9.37737 4.18201 9.39293 4.18201 9.40849 4.18201C9.42406 4.18201 9.43964 4.18201 9.45523 4.18201C9.47083 4.18201 9.48644 4.18201 9.50206 4.18201C9.51768 4.18201 9.53331 4.18201 9.54896 4.18201C9.56461 4.18201 9.58027 4.18201 9.59594 4.18201C9.61162 4.18201 9.62731 4.18201 9.64301 4.18201C9.65871 4.18201 9.67443 4.18201 9.69015 4.18201C9.70588 4.18201 9.72162 4.18201 9.73738 4.18201C9.75313 4.18201 9.7689 4.18201 9.78468 4.18201C9.80047 4.18201 9.81626 4.18201 9.83207 4.18201C9.84788 4.18201 9.8637 4.18201 9.87953 4.18201C9.89537 4.18201 9.91121 4.18201 9.92708 4.18201C9.94294 4.18201 9.95881 4.18201 9.9747 4.18201C9.99059 4.18201 10.0065 4.18201 10.0224 4.18201C10.0383 4.18201 10.0542 4.18201 10.0702 4.18201C10.0861 4.18201 10.1021 4.18201 10.118 4.18201C10.134 4.18201 10.15 4.18201 10.166 4.18201C10.182 4.18201 10.198 4.18201 10.214 4.18201C10.23 4.18201 10.246 4.18201 10.2621 4.18201C10.2781 4.18201 10.2942 4.18201 10.3103 4.18201C10.3263 4.18201 10.3424 4.18201 10.3585 4.18201C10.3746 4.18201 10.3907 4.18201 10.4068 4.18201C10.423 4.18201 10.4391 4.18201 10.4552 4.18201C10.4714 4.18201 10.4875 4.18201 10.5037 4.18201C10.5199 4.18201 10.5361 4.18201 10.5523 4.18201C10.5685 4.18201 10.5847 4.18201 10.6009 4.18201C10.6171 4.18201 10.6334 4.18201 10.6496 4.18201C10.6659 4.18201 10.6821 4.18201 10.6984 4.18201C10.7147 4.18201 10.731 4.18201 10.7473 4.18201C10.7636 4.18201 10.7799 4.18201 10.7962 4.18201C10.8125 4.18201 10.8289 4.18201 10.8452 4.18201C10.8616 4.18201 10.8779 4.18201 10.8943 4.18201C10.9107 4.18201 10.9271 4.18201 10.9435 4.18201C10.9599 4.18201 10.9763 4.18201 10.9927 4.18201C11.0091 4.18201 11.0256 4.18201 11.042 4.18201C11.0585 4.18201 11.0749 4.18201 11.0914 4.18201C11.1079 4.18201 11.1244 4.18201 11.1409 4.18201C11.1574 4.18201 11.1739 4.18201 11.1904 4.18201C11.2069 4.18201 11.2235 4.18201 11.24 4.18201C11.2566 4.18201 11.2731 4.18201 11.2897 4.18201C11.3063 4.18201 11.3229 4.18201 11.3395 4.18201C11.3561 4.18201 11.3727 4.18201 11.3893 4.18201C11.4059 4.18201 11.4226 4.18201 11.4392 4.18201C11.4559 4.18201 11.4725 4.18201 11.4892 4.18201C11.5059 4.18201 11.5226 4.18201 11.5392 4.18201C11.5559 4.18201 11.5727 4.18201 11.5894 4.18201C11.6061 4.18201 11.6228 4.18201 11.6396 4.18201C11.6563 4.18201 11.6731 4.18201 11.6898 4.18201C11.7066 4.18201 11.7234 4.18201 11.7402 4.18201C11.757 4.18201 11.7738 4.18201 11.7906 4.18201C11.8074 4.18201 11.8242 4.18201 11.8411 4.18201C11.8579 4.18201 11.8748 4.18201 11.8916 4.18201C11.9085 4.18201 11.9254 4.18201 11.9423 4.18201C11.9592 4.18201 11.9761 4.18201 11.993 4.18201C12.0099 4.18201 12.0268 4.18201 12.0438 4.18201C12.0607 4.18201 12.0776 4.18201 12.0946 4.18201C12.1116 4.18201 12.1285 4.18201 12.1455 4.18201C12.1625 4.18201 12.1795 4.18201 12.1965 4.18201C12.2135 4.18201 12.2305 4.18201 12.2475 4.18201C12.2646 4.18201 12.2816 4.18201 12.2987 4.18201C12.3157 4.18201 12.3328 4.18201 12.3499 4.18201C12.3669 4.18201 12.384 4.18201 12.4011 4.18201C12.4182 4.18201 12.4353 4.18201 12.4525 4.18201C12.4696 4.18201 12.4867 4.18201 12.5039 4.18201C12.521 4.18201 12.5382 4.18201 12.5553 4.18201C12.5725 4.18201 12.5897 4.18201 12.6069 4.18201C12.6241 4.18201 12.6413 4.18201 12.6585 4.18201C12.6757 4.18201 12.6929 4.18201 12.7102 4.18201C12.7274 4.18201 12.7447 4.18201 12.7619 4.18201C12.7792 4.18201 12.7964 4.18201 12.8137 4.18201C12.831 4.18201 12.8483 4.18201 12.8656 4.18201C12.8829 4.18201 12.9002 4.18201 12.9176 4.18201C12.9349 4.18201 12.9522 4.18201 12.9696 4.18201C12.9869 4.18201 13.0043 4.18201 13.0217 4.18201C13.039 4.18201 13.0564 4.18201 13.0738 4.18201C13.0912 4.18201 13.1086 4.18201 13.126 4.18201C13.1435 4.18201 13.1609 4.18201 13.1783 4.18201C13.1958 4.18201 13.2132 4.18201 13.2307 4.18201C13.2481 4.18201 13.2656 4.18201 13.2831 4.18201C13.3006 4.18201 13.3181 4.18201 13.3356 4.18201C13.3531 4.18201 13.3706 4.18201 13.3881 4.18201C13.4057 4.18201 13.4232 4.18201 13.4408 4.18201C13.4583 4.18201 13.4759 4.18201 13.4934 4.18201C13.511 4.18201 13.5286 4.18201 13.5462 4.18201C13.5638 4.18201 13.5814 4.18201 13.599 4.18201C13.6166 4.18201 13.6342 4.18201 13.6519 4.18201C13.6695 4.18201 13.6872 4.18201 13.7048 4.18201C13.7225 4.18201 13.7402 4.18201 13.7578 4.18201C13.7755 4.18201 13.7932 4.18201 13.8109 4.18201C13.8286 4.18201 13.8463 4.18201 13.8641 4.18201C13.8818 4.18201 13.8995 4.18201 13.9173 4.18201C13.935 4.18201 13.9528 4.18201 13.9705 4.18201C13.9883 4.18201 14.0061 4.18201 14.0238 4.18201C14.0416 4.18201 14.0594 4.18201 14.0772 4.18201C14.0951 4.18201 14.1129 4.18201 14.1307 4.18201C14.1485 4.18201 14.1664 4.18201 14.1842 4.18201C14.2021 4.18201 14.2199 4.18201 14.2378 4.18201C14.2557 4.18201 14.2736 4.18201 14.2914 4.18201C14.3093 4.18201 14.3272 4.18201 14.3452 4.18201C14.3631 4.18201 14.381 4.18201 14.3989 4.18201C14.4169 4.18201 14.4348 4.18201 14.4528 4.18201C14.4707 4.18201 14.4887 4.18201 14.5067 4.18201C14.5246 4.18201 14.5426 4.18201 14.5606 4.18201C14.5786 4.18201 14.5966 4.18201 14.6146 4.18201C14.6326 4.18201 14.6507 4.18201 14.6687 4.18201C14.6867 4.18201 14.7048 4.18201 14.7229 4.18201C14.7409 4.18201 14.759 4.18201 14.7771 4.18201C14.7951 4.18201 14.8132 4.18201 14.8313 4.18201C14.8494 4.18201 14.8675 4.18201 14.8856 4.18201C14.9038 4.18201 14.9219 4.18201 14.94 4.18201C14.9582 4.18201 14.9763 4.18201 14.9945 4.18201C15.0126 4.18201 15.0308 4.18201 15.049 4.18201C15.0672 4.18201 15.0853 4.18201 15.1035 4.18201C15.1217 4.18201 15.1399 4.18201 15.1582 4.18201C15.1764 4.18201 15.1946 4.18201 15.2128 4.18201C15.2311 4.18201 15.2493 4.18201 15.2676 4.18201C15.2858 4.18201 15.3041 4.18201 15.3224 4.18201C15.3407 4.18201 15.359 4.18201 15.3773 4.18201C15.3955 4.18201 15.4139 4.18201 15.4322 4.18201C15.4505 4.18201 15.4688 4.18201 15.4872 4.18201C15.5055 4.18201 15.5238 4.18201 15.5422 4.18201C15.5605 4.18201 15.5789 4.18201 15.5973 4.18201C15.6157 4.18201 15.634 4.18201 15.6524 4.18201C15.6708 4.18201 15.6892 4.18201 15.7076 4.18201C15.7261 4.18201 15.7445 4.18201 15.7629 4.18201C15.7813 4.18201 15.7998 4.18201 15.8182 4.18201C15.8367 4.18201 15.8552 4.18201 15.8736 4.18201C15.8921 4.18201 15.9106 4.18201 15.9291 4.18201C15.9476 4.18201 15.9661 4.18201 15.9846 4.18201C16.0031 4.18201 16.0216 4.18201 16.0401 4.18201C16.0586 4.18201 16.0772 4.18201 16.0957 4.18201C16.1143 4.18201 16.1328 4.18201 16.1514 4.18201C16.17 4.18201 16.1885 4.18201 16.2071 4.18201C16.2257 4.18201 16.2443 4.18201 16.2629 4.18201C16.2815 4.18201 16.3001 4.18201 16.3187 4.18201C16.3373 4.18201 16.356 4.18201 16.3746 4.18201C16.3933 4.18201 16.4119 4.18201 16.4306 4.18201C16.4492 4.18201 16.4679 4.18201 16.4866 4.18201C16.5052 4.18201 16.5239 4.18201 16.5426 4.18201C16.5613 4.18201 16.58 4.18201 16.5987 4.18201C16.6174 4.18201 16.6362 4.18201 16.6549 4.18201C16.6736 4.18201 16.6924 4.18201 16.7111 4.18201C16.7299 4.18201 16.7486 4.18201 16.7674 4.18201C16.7861 4.18201 16.8049 4.18201 16.8237 4.18201C16.8425 4.18201 16.8613 4.18201 16.8801 4.18201C16.8989 4.18201 16.9177 4.18201 16.9365 4.18201C16.9553 4.18201 16.9742 4.18201 16.993 4.18201C17.0118 4.18201 17.0307 4.18201 17.0495 4.18201C17.0684 4.18201 17.0873 4.18201 17.1061 4.18201C17.125 4.18201 17.1439 4.18201 17.1628 4.18201C17.1817 4.18201 17.2006 4.18201 17.2195 4.18201C17.2384 4.18201 17.2573 4.18201 17.2762 4.18201C17.2952 4.18201 17.3141 4.18201 17.333 4.18201C17.352 4.18201 17.3709 4.18201 17.3899 4.18201C17.4088 4.18201 17.4278 4.18201 17.4468 4.18201C17.4658 4.18201 17.4848 4.18201 17.5038 4.18201C17.5227 4.18201 17.5418 4.18201 17.5608 4.18201C17.5798 4.18201 17.5988 4.18201 17.6178 4.18201C17.6369 4.18201 17.6559 4.18201 17.6749 4.18201C17.694 4.18201 17.713 4.18201 17.7321 4.18201C17.7512 4.18201 17.7702 4.18201 17.7893 4.18201C17.8084 4.18201 17.8275 4.18201 17.8466 4.18201C17.8657 4.18201 17.8848 4.18201 17.9039 4.18201C17.923 4.18201 17.9421 4.18201 17.9613 4.18201C17.9804 4.18201 17.9995 4.18201 18.0187 4.18201C18.0378 4.18201 18.057 4.18201 18.0761 4.18201C18.0953 4.18201 18.1145 4.18201 18.1336 4.18201C18.1528 4.18201 18.172 4.18201 18.1912 4.18201C18.2104 4.18201 18.2296 4.18201 18.2488 4.18201C18.268 4.18201 18.2873 4.18201 18.3065 4.18201C18.3257 4.18201 18.345 4.18201 18.3642 4.18201C18.3834 4.18201 18.4027 4.18201 18.422 4.18201C18.4412 4.18201 18.4605 4.18201 18.4798 4.18201C18.499 4.18201 18.5183 4.18201 18.5376 4.18201C18.5569 4.18201 18.5762 4.18201 18.5955 4.18201C18.6148 4.18201 18.6341 4.18201 18.6535 4.18201C18.6728 4.18201 18.6921 4.18201 18.7115 4.18201C18.7308 4.18201 18.7502 4.18201 18.7695 4.18201C18.7889 4.18201 18.8082 4.18201 18.8276 4.18201C18.847 4.18201 18.8664 4.18201 18.8857 4.18201C18.9051 4.18201 18.9245 4.18201 18.9439 4.18201C18.9633 4.18201 18.9828 4.18201 19.0022 4.18201C19.0216 4.18201 19.041 4.18201 19.0604 4.18201C19.0799 4.18201 19.0993 4.18201 19.1188 4.18201C19.1382 4.18201 19.1577 4.18201 19.1771 4.18201C19.1966 4.18201 19.2161 4.18201 19.2356 4.18201C19.255 4.18201 19.2745 4.18201 19.294 4.18201C19.3135 4.18201 19.333 4.18201 19.3525 4.18201C19.3721 4.18201 19.3916 4.18201 19.4111 4.18201C19.4306 4.18201 19.4502 4.18201 19.4697 4.18201C19.4892 4.18201 19.5088 4.18201 19.5283 4.18201C19.5479 4.18201 19.5675 4.18201 19.587 4.18201C19.6066 4.18201 19.6262 4.18201 19.6458 4.18201C19.6653 4.18201 19.6849 4.18201 19.7045 4.18201C19.7241 4.18201 19.7437 4.18201 19.7634 4.18201C19.783 4.18201 19.8026 4.18201 19.8222 4.18201C19.8419 4.18201 19.8615 4.18201 19.8811 4.18201C19.9008 4.18201 19.9204 4.18201 19.9401 4.18201C19.9598 4.18201 19.9794 4.18201 19.9991 4.18201C20.0188 4.18201 20.0384 4.18201 20.0581 4.18201C20.0778 4.18201 20.0975 4.18201 20.1172 4.18201C20.1369 4.18201 20.1566 4.18201 20.1763 4.18201C20.1961 4.18201 20.2158 4.18201 20.2355 4.18201C20.2552 4.18201 20.275 4.18201 20.2947 4.18201C20.3145 4.18201 20.3342 4.18201 20.354 4.18201C20.3737 4.18201 20.3935 4.18201 20.4133 4.18201C20.433 4.18201 20.4528 4.18201 20.4726 4.18201C20.4924 4.18201 20.5122 4.18201 20.532 4.18201C20.5518 4.18201 20.5716 4.18201 20.5914 4.18201C20.6112 4.18201 20.631 4.18201 20.6509 4.18201C20.6707 4.18201 20.6905 4.18201 20.7104 4.18201C20.7302 4.18201 20.7501 4.18201 20.7699 4.18201C20.7898 4.18201 20.8096 4.18201 20.8295 4.18201C20.8494 4.18201 20.8692 4.18201 20.8891 4.18201C20.909 4.18201 20.9289 4.18201 20.9488 4.18201C20.9687 4.18201 20.9886 4.18201 21.0085 4.18201C21.0284 4.18201 21.0483 4.18201 21.0682 4.18201C21.0882 4.18201 21.1081 4.18201 21.128 4.18201C21.148 4.18201 21.1679 4.18201 21.1878 4.18201C21.2078 4.18201 21.2277 4.18201 21.2477 4.18201C21.2677 4.18201 21.2876 4.18201 21.3076 4.18201C21.3276 4.18201 21.3476 4.18201 21.3676 4.18201C21.3875 4.18201 21.4075 4.18201 21.4275 4.18201C21.4475 4.18201 21.4675 4.18201 21.4876 4.18201C21.5076 4.18201 21.5276 4.18201 21.5476 4.18201C21.5676 4.18201 21.5877 4.18201 21.6077 4.18201C21.6277 4.18201 21.6478 4.18201 21.6678 4.18201C21.6879 4.18201 21.7079 4.18201 21.728 4.18201C21.7481 4.18201 21.7681 4.18201 21.7882 4.18201C21.8083 4.18201 21.8284 4.18201 21.8485 4.18201C21.8686 4.18201 21.8886 4.18201 21.9088 4.18201C21.9289 4.18201 21.949 4.18201 21.9691 4.18201C21.9892 4.18201 22.0093 4.18201 22.0294 4.18201C22.0496 4.18201 22.0697 4.18201 22.0898 4.18201C22.11 4.18201 22.1301 4.18201 22.1503 4.18201C22.1704 4.18201 22.1906 4.18201 22.2107 4.18201C22.2309 4.18201 22.251 4.18201 22.2712 4.18201C22.2914 4.18201 22.3116 4.18201 22.3318 4.18201C22.3519 4.18201 22.3721 4.18201 22.3923 4.18201C22.4125 4.18201 22.4327 4.18201 22.4529 4.18201C22.4732 4.18201 22.4934 4.18201 22.5136 4.18201C22.5338 4.18201 22.554 4.18201 22.5743 4.18201C22.5945 4.18201 22.6147 4.18201 22.635 4.18201C22.6552 4.18201 22.6755 4.18201 22.6957 4.18201C22.716 4.18201 22.7363 4.18201 22.7565 4.18201C22.7768 4.18201 22.7971 4.18201 22.8173 4.18201C22.8376 4.18201 22.8579 4.18201 22.8782 4.18201C22.8985 4.18201 22.9188 4.18201 22.9391 4.18201C22.9594 4.18201 22.9797 4.18201 23 4.18201V3.68201Z" fill="black"/>
</svg>
